<svg xmlns="http://www.w3.org/2000/svg" xmlns:xlink="http://www.w3.org/1999/xlink" width="186.194" height="100" viewBox="0 0 186.194 100"><defs><style>.a{fill:#ffbe00;}.b{fill:url(#a);}.c{fill:#fc9200;}.d{fill:#f77e0b;}.e{fill:#fff584;}.f{fill:#cb0017;}.g{fill:#e50019;}.h{fill:#b50014;}.i{fill:#e3e3e2;}.j{fill:#f1f4f6;}.k{fill:#002581;}.l{fill:#c7c9cb;}.m{fill:#9f0610;}.n{fill:#54c7f5;}.o{fill:#98dbf9;}.p{fill:#8cbb2b;}.q{fill:none;opacity:0.3;}.r{fill:#6c9522;}.s{fill:#5e841d;}.t{fill:#fff;}.u{fill:#313133;}.v{fill:#efefef;}</style><radialGradient id="a" cx="0.538" cy="0.033" r="0.968" gradientTransform="translate(0)" gradientUnits="objectBoundingBox"><stop offset="0" stop-color="#fe0"/><stop offset="1" stop-color="#fc9200"/></radialGradient></defs><g transform="translate(-54.259 -46)"><g transform="translate(140.453 46)"><circle class="a" cx="50" cy="50" r="50"/><circle class="b" cx="47.777" cy="47.777" r="47.777" transform="translate(2.223 2.223)"/><g transform="translate(72.335 18.667)"><path class="a" d="M217.972,77.385c-2.59,3.518-8.084,3.871-12.273.789s-5.485-8.434-2.895-11.952,8.084-3.871,12.272-.789S220.561,73.867,217.972,77.385Z" transform="translate(-201.47 -63.334)"/><path class="c" d="M205.7,78.029c3.779,2.781,8.619,2.764,11.432.152,1.648-3.46.223-8.078-3.55-10.855s-8.619-2.764-11.432-.152C200.5,70.634,201.926,75.252,205.7,78.029Z" transform="translate(-201.47 -63.188)"/></g><g transform="translate(27.541 46.234)"><path class="a" d="M175.313,91.024c3.057,3.121,2.523,8.6-1.193,12.24s-9.205,4.059-12.261.938-2.523-8.6,1.192-12.24S172.257,87.9,175.313,91.024Z" transform="translate(-159.874 -88.933)"/><path class="c" d="M173.994,103.135c3.352-3.282,4.114-8.063,1.987-11.259-3.151-2.182-7.937-1.517-11.284,1.761s-4.114,8.064-1.987,11.259C165.861,107.078,170.647,106.413,173.994,103.135Z" transform="translate(-159.747 -88.804)"/></g><g transform="translate(72.904 53.104)"><path class="a" d="M215.267,112.374c-3.725,2.283-8.948.537-11.665-3.9s-1.9-9.88,1.825-12.162,8.947-.537,11.664,3.9S218.992,110.092,215.267,112.374Z" transform="translate(-201.998 -95.313)"/><path class="c" d="M203.6,108.383c2.451,4,6.941,5.81,10.531,4.451,2.83-2.583,3.252-7.4.8-11.392s-6.941-5.81-10.531-4.451C201.577,99.574,201.155,104.388,203.6,108.383Z" transform="translate(-201.998 -95.218)"/></g><g transform="translate(52.024 32.892)"><path class="a" d="M200.59,88.152c-1.612,4.061-6.837,5.8-11.671,3.877s-7.444-6.767-5.832-10.827,6.838-5.8,11.671-3.876S202.2,84.092,200.59,88.152Z" transform="translate(-182.61 -76.544)"/><path class="c" d="M188.918,91.861c4.36,1.732,9.038.488,11.1-2.753.716-3.766-1.833-7.87-6.188-9.6s-9.038-.488-11.1,2.753C182.016,86.027,184.564,90.131,188.918,91.861Z" transform="translate(-182.609 -76.376)"/></g><g transform="translate(26.219 9.709)"><path class="a" d="M168.159,56.934c1.266,2.077.29,4.985-2.184,6.494s-5.506,1.047-6.774-1.031-.29-4.985,2.184-6.494S166.892,54.856,168.159,56.934Z" transform="translate(-158.647 -55.016)"/><path class="c" d="M165.923,63.342c2.231-1.361,3.245-3.861,2.491-5.861-1.437-1.58-4.117-1.82-6.345-.461s-3.245,3.86-2.492,5.861C161.013,64.461,163.695,64.7,165.923,63.342Z" transform="translate(-158.594 -54.93)"/></g><g transform="translate(36.657 27.954)"><path class="a" d="M175.129,76.342a3.61,3.61,0,1,1-2.2-4.089A3.309,3.309,0,0,1,175.129,76.342Z" transform="translate(-168.339 -71.958)"/><path class="c" d="M170.722,77.742a3.429,3.429,0,0,0,4.19-1.039,3.71,3.71,0,0,0-6.527-2.586A3.429,3.429,0,0,0,170.722,77.742Z" transform="translate(-168.339 -71.894)"/></g><g transform="translate(58.324 58.51)"><path class="a" d="M195.249,104.716a3.61,3.61,0,1,1-2.2-4.088A3.309,3.309,0,0,1,195.249,104.716Z" transform="translate(-188.459 -100.333)"/><path class="c" d="M190.841,106.116a3.428,3.428,0,0,0,4.19-1.039,3.709,3.709,0,0,0-6.526-2.586A3.429,3.429,0,0,0,190.841,106.116Z" transform="translate(-188.459 -100.269)"/></g><g transform="translate(83.785 42.085)"><path class="a" d="M217.042,91.568a3.61,3.61,0,1,1,.781-4.578A3.309,3.309,0,0,1,217.042,91.568Z" transform="translate(-212.103 -85.08)"/><path class="c" d="M212.667,89.975a3.43,3.43,0,0,0,3.942,1.76,3.71,3.71,0,0,0-3.553-6.055A3.431,3.431,0,0,0,212.667,89.975Z" transform="translate(-212.103 -85.046)"/></g><g transform="translate(10.646 44.511)"><path class="a" d="M150.5,88.5a3.61,3.61,0,1,1-4.622-.45A3.31,3.31,0,0,1,150.5,88.5Z" transform="translate(-144.185 -87.333)"/><path class="c" d="M149.222,92.921a3.429,3.429,0,0,0,1.472-4.059,3.71,3.71,0,0,0-5.784,3.978A3.431,3.431,0,0,0,149.222,92.921Z" transform="translate(-144.147 -87.277)"/></g><g transform="translate(11.755 19.803)"><path class="a" d="M161.838,67.386c2.527,3.562,1.138,8.891-3.1,11.9s-9.73,2.56-12.257-1-1.138-8.891,3.1-11.9S159.31,63.823,161.838,67.386Z" transform="translate(-145.216 -64.389)"/><path class="c" d="M158.629,79.138c3.826-2.715,5.331-7.315,3.734-10.805-2.769-2.651-7.6-2.748-11.421-.038s-5.331,7.315-3.734,10.805C149.977,81.752,154.808,81.849,158.629,79.138Z" transform="translate(-145.111 -64.242)"/></g><g transform="translate(40.992 6)"><path class="a" d="M199.221,62.862c-1.642,4.561-8.91,7.084-16.235,5.634s-11.931-6.32-10.29-10.881,8.91-7.084,16.235-5.634S200.863,58.3,199.221,62.862Z" transform="translate(-172.365 -51.572)"/><path class="c" d="M182.986,68.308c6.608,1.307,13.167-.618,15.594-4.356.394-4.131-4-8.213-10.594-9.519s-13.168.618-15.594,4.356C172,62.92,176.388,67,182.986,68.308Z" transform="translate(-172.365 -51.383)"/></g><g transform="translate(38.307 73.196)"><path class="a" d="M169.9,125.1c.485-5.572,7.847-10.532,16.445-11.078s15.174,3.528,14.689,9.1-7.847,10.532-16.444,11.078S169.412,130.669,169.9,125.1Z" transform="translate(-169.872 -113.97)"/><path class="c" d="M186.316,114.02c-7.756.493-14.5,4.578-16.108,9.463.781,4.724,6.882,7.982,14.627,7.49s14.5-4.577,16.108-9.461C200.163,116.786,194.061,113.527,186.316,114.02Z" transform="translate(-169.846 -113.97)"/></g><g transform="translate(12.133 60.294)"><path class="a" d="M148.079,102.41c3.185-1.463,8.17,1.011,11.133,5.525s2.782,9.361-.4,10.825-8.171-1.011-11.134-5.527S144.893,103.872,148.079,102.41Z" transform="translate(-145.566 -101.989)"/><path class="c" d="M159.081,107.935c-2.673-4.073-6.99-6.484-10.149-5.843-2.333,1.89-2.216,6.224.453,10.292s6.99,6.484,10.149,5.843C161.867,116.338,161.75,112,159.081,107.935Z" transform="translate(-145.434 -101.989)"/></g></g><g transform="translate(54.259 61.835)"><g transform="translate(0 54.652)"><path class="d" d="M82.493,125.86c-7.486-.187-12-.879-28.127,1.154l-.107.014.1-.037c15.29-5.528,18.991-8.2,25.573-11.768,6.611-3.588,15.664-3.769,15.664-3.769l1.939,5.147.005.023.615,5.466S90.013,126.049,82.493,125.86Z" transform="translate(-54.259 -111.455)"/><path class="a" d="M67.465,123.482c4.371-1.967,7.261-3.587,10.243-5.258.971-.544,1.975-1.107,3.03-1.68,3.471-1.885,10.688-3.188,13.368-3.464l.868,3.605.892,3.707c-2.508.972-9.464,3.331-13.425,3.232-1.2-.03-2.35-.074-3.461-.117C75.563,123.374,72.254,123.246,67.465,123.482Z" transform="translate(-53.244 -111.33)"/><path class="e" d="M74.969,121.437c1.65-.8,3.158-1.568,4.647-2.324l.017-.009c1.14-.579,2.321-1.178,3.544-1.782,2.3-1.136,7.153-2.279,10.694-2.925l1.085,4.51c-3.718,1.193-8.4,2.425-10.808,2.46-1.367.018-2.691.022-3.973.025h-.015C78.494,121.4,76.8,121.4,74.969,121.437Z" transform="translate(-52.667 -111.229)"/></g><g transform="translate(36.205)"><g transform="translate(0 31.149)"><path class="f" d="M105.694,104.063a9.475,9.475,0,0,0-3.252-1.481c-6.027-1.589-14.563.662-14.563.662v0c0-.166.184-7.036,7.8-11.427a18.687,18.687,0,0,1,11.728-1.99,1.259,1.259,0,0,1,1.1.955,1.361,1.361,0,0,1-.139,1.025,1.27,1.27,0,0,1-.8.583l8.9,2.357,6.667,1.765h0C116.52,101.255,105.694,104.063,105.694,104.063Z" transform="translate(-87.879 -89.63)"/><path class="g" d="M87.88,103.242c0-.166.184-7.036,7.8-11.427a18.687,18.687,0,0,1,11.728-1.99,1.259,1.259,0,0,1,1.1.955,1.361,1.361,0,0,1-.139,1.025q-.376.286-.8.583s-7.272-.489-13.052,3.352C88.819,99.522,87.907,103.131,87.88,103.242Z" transform="translate(-87.879 -89.63)"/><path class="h" d="M104.585,103.592a9.487,9.487,0,0,0-3.231-1.529c4.136-3.731,9.6-6.139,14.135-7.63l6.641,1.862h0C115.45,100.943,104.585,103.592,104.585,103.592Z" transform="translate(-86.843 -89.261)"/><g transform="translate(8.265 34.494)"><path class="f" d="M110.768,123.654a9.476,9.476,0,0,1-2.135,2.864c-4.515,4.3-13.079,6.438-13.079,6.438v0c.083.144,3.553,6.077,12.338,6.256a18.692,18.692,0,0,0,11.236-3.908,1.259,1.259,0,0,0,.5-1.364,1.361,1.361,0,0,0-.616-.832,1.272,1.272,0,0,0-.982-.124l6.666-6.357,4.991-4.759,0,0C121.608,120.9,110.768,123.654,110.768,123.654Z" transform="translate(-95.554 -121.661)"/><path class="g" d="M95.555,132.152c.083.144,3.553,6.077,12.338,6.256a18.692,18.692,0,0,0,11.236-3.908,1.259,1.259,0,0,0,.5-1.364,1.361,1.361,0,0,0-.616-.832c-.311-.045-.639-.087-.982-.124,0,0-6.135,3.933-13.051,3.352C98.171,134.958,95.633,132.237,95.555,132.152Z" transform="translate(-95.554 -120.854)"/><path class="h" d="M109.834,123.654a9.476,9.476,0,0,1-2.135,2.864c5.4,1.356,11.357.921,16.063.11l4.991-4.759,0,0C120.674,120.9,109.834,123.654,109.834,123.654Z" transform="translate(-94.62 -121.661)"/></g><path class="i" d="M129.019,124.127a68.625,68.625,0,0,1-7.166,1.544,40.554,40.554,0,0,1-7.134.372c-.087,0-.174-.006-.261-.015l-4.379-.412-4.838-.456-9.2-.865L92.91,112.117l.869-.589,6.779-4.6,4.019-2.73a54.713,54.713,0,0,1,16.794-7.688l.518-.135A60.264,60.264,0,0,1,143.246,94.6q.63.065,1.241.144,1.465.189,2.817.443c.389.073.77.148,1.144.227q.286.06.566.123a46.151,46.151,0,0,1,6.247,1.853,38.2,38.2,0,0,1,4.819,2.194,2.27,2.27,0,0,1,.853,3.319,42.443,42.443,0,0,1-7.746,8.88q-.237.208-.481.417c-.288.249-.584.5-.888.746q-1.061.869-2.254,1.74-.481.352-.989.7A60.3,60.3,0,0,1,129.019,124.127Z" transform="translate(-87.492 -89.27)"/><path class="j" d="M126.679,121.69c16.01-4.4,23.588-11.489,23.706-11.6-22.681,12.192-41.913,12.142-51.208,11.074q.249.552.521,1.1C106.63,123.05,118.62,123.905,126.679,121.69Z" transform="translate(-87.01 -88.057)"/><path class="k" d="M100.852,123.669l-4.813-.452q-.417-.732-.782-1.47-.309-.627-.578-1.259a22.392,22.392,0,0,1-1.419-4.575,20.274,20.274,0,0,1-.348-4.874l4-2.715a31.853,31.853,0,0,0,.569,6.129,30.651,30.651,0,0,0,2.183,6.846q.249.552.521,1.1C100.4,122.824,100.619,123.248,100.852,123.669Z" transform="translate(-87.494 -88.193)"/><path class="l" d="M93.26,116.991a20.274,20.274,0,0,1-.348-4.874l4-2.715,3.65-2.479,4.019-2.73a54.712,54.712,0,0,1,16.794-7.688l.518-.135a57.73,57.73,0,0,1,27.124-.832,46.151,46.151,0,0,1,6.247,1.853c-.6,1.574-.1,2.1-3.292,3.4,0,0-18.611-5.3-33.279,1.18-13.436,5.931-9.151,9.386-9.151,9.386l-12.061,4.175Z" transform="translate(-87.494 -89.27)"/><g transform="translate(0.533 20.104)"><path class="g" d="M89.029,119.333a.742.742,0,0,1-.345-1.34c10.233-7.316,29.65-9.214,37.6-9.693a.739.739,0,0,1,.361,1.406C119.449,113.117,101.52,120.812,89.029,119.333Z" transform="translate(-88.374 -108.299)"/><path class="m" d="M127.044,108.855,88.4,118.78a.731.731,0,0,1,.286-.787c10.233-7.316,29.65-9.214,37.6-9.693A.722.722,0,0,1,127.044,108.855Z" transform="translate(-88.374 -108.299)"/></g><g transform="translate(42.339 11.008)"><path class="k" d="M135.984,113.706a7.037,7.037,0,1,1,5.065-8.567A7.037,7.037,0,0,1,135.984,113.706Z" transform="translate(-127.195 -99.852)"/><path class="n" d="M135.512,112.176l-.071.017a5.571,5.571,0,0,1-6.684-3.952c-.008-.024-.014-.048-.019-.071a5.569,5.569,0,1,1,6.775,4.006Z" transform="translate(-127.09 -99.747)"/><path class="o" d="M136.657,111.6a5.566,5.566,0,0,0-4.18-10.2c-.149.039-.294.082-.435.131a5.565,5.565,0,0,1,2.755,10.745c.126-.02.252-.047.378-.078l.071-.017A5.6,5.6,0,0,0,136.657,111.6Z" transform="translate(-126.822 -99.747)"/><path class="o" d="M138.042,107.278s-1.627,2.73-4.3,2.716c-2.929-.014-3.989-2.225-3.921-4.882a4.326,4.326,0,0,0,.755,4.723C132.667,112.4,137,111.211,138.042,107.278Z" transform="translate(-127.023 -99.448)"/></g><g transform="translate(61.521 6.269)"><path class="h" d="M149.181,111.7a48.592,48.592,0,0,1-4.173-16.246A42.4,42.4,0,0,1,156.074,99.5a2.3,2.3,0,0,1,1.247,1.863,2.411,2.411,0,0,1-.394,1.456A42.442,42.442,0,0,1,149.181,111.7Z" transform="translate(-145.008 -95.451)"/><path class="g" d="M154.072,104.27c.288-.372.523-.6.989-1.163.725-.88.8-1.391.152-1.8-1.187-.736-5.515,3.284-5.342,5.925C150,109.289,152.825,105.884,154.072,104.27Z" transform="translate(-144.635 -95.007)"/><path class="g" d="M149.181,111.7a48.592,48.592,0,0,1-4.173-16.246A42.4,42.4,0,0,1,156.074,99.5a2.3,2.3,0,0,1,1.247,1.863c-.407-.275-3.37-2.185-6.134-1.474C148.212,100.65,146.6,105.154,149.181,111.7Z" transform="translate(-145.008 -95.451)"/></g></g><g transform="translate(7.566)"><path class="l" d="M121.15,102.586a18.993,18.993,0,0,0,.557,4.313c-3.147.182-1.4,3.053,1.013,1.593.676,2.6,9.109-1.683,2.4-1.625-1-2.525.083-6.137-.435-8.382a1.272,1.272,0,0,0-.14-.587,1.6,1.6,0,0,0-1.148-.7l0-.012c.028-.079.157-.193.084-.234-1.6-.891-7.012-.454-10.746,2.272C112.744,99.221,114.143,105.754,121.15,102.586Z" transform="translate(-93.533 -57.951)"/><path class="p" d="M124.267,80.829c1.409,1.785,2.236,4.65,4.336,6.671,1.75,1.684,8.015,3.711,4.983,6.862-2.362,2.279-6.347.465-7.763-1.741a12.382,12.382,0,0,1-2.877-8.007,7.467,7.467,0,0,1,1.322-3.785" transform="translate(-92.749 -59.158)"/><path class="q" d="M133.243,93.884A3.915,3.915,0,0,1,129.91,94.9l-.009,0c-2.484-1.284-3.217-4.8-1.641-7.868C130.008,88.706,136.271,90.733,133.243,93.884Z" transform="translate(-92.404 -58.682)"/><path class="r" d="M130.246,95.367c-1.8-.238-1.683.286-4.425-2.745a12.387,12.387,0,0,1-2.875-8,7.429,7.429,0,0,1,1.325-3.79c1.406,1.79,2.233,4.652,4.334,6.671C127.03,90.563,127.762,94.083,130.246,95.367Z" transform="translate(-92.749 -59.158)"/><path class="s" d="M115.295,96.715a11.449,11.449,0,0,1-3.979-1.062,10.065,10.065,0,0,1-.913-.481c-.138-.075-.311-.2-.4-.251l-.237-.17-.179-.136a5.084,5.084,0,0,1-1.244-1.411c-.673-1.083-.985-2.723-1.883-4.236-.11-.186-.228-.369-.351-.548l-.176-.247c-.075-.1-.154-.2-.227-.286a6.37,6.37,0,0,0-.972-.922,7.639,7.639,0,0,0-2.283-1.2,6.812,6.812,0,0,0-2.541-.341,5.563,5.563,0,0,0-2.446.738,5.754,5.754,0,0,0-1.93,1.612,3.083,3.083,0,0,0-.548,2.506,3.89,3.89,0,0,0,1.341,2.086,4.041,4.041,0,0,0,2.227.947,2.416,2.416,0,0,0,2.154-.933,4.267,4.267,0,0,0,.745-2.2,4.189,4.189,0,0,1-.876,2.1,2.154,2.154,0,0,1-1.988.7,3.648,3.648,0,0,1-2.94-2.824,2.312,2.312,0,0,1,.555-1.866,4.873,4.873,0,0,1,1.715-1.221,4.8,4.8,0,0,1,4.03.044,6.126,6.126,0,0,1,1.724,1.122,4.881,4.881,0,0,1,1.143,1.62,11.841,11.841,0,0,1,.69,2.035,13.541,13.541,0,0,0,.805,2.385,7.463,7.463,0,0,0,1.617,2.226l.263.241.22.192c.221.173.356.285.545.419a12.268,12.268,0,0,0,1.087.709,14.424,14.424,0,0,0,4.83,1.782Z" transform="translate(-94.905 -58.805)"/><g transform="translate(17.268 14.343)"><path class="p" d="M122.493,101.623c-.06.1-.127.183-.19.272-1.258,1.768-2.767,2.789-4.364,2.747-4.08-.1-7.21-7.045-6.989-15.5a29.691,29.691,0,0,1,.746-6,19.551,19.551,0,0,1,2.229-5.712c1.337-2.17,3.017-3.45,4.813-3.405,1.62.042,3.093,1.164,4.263,3.037a13.6,13.6,0,0,1,1.006,1.976,18.813,18.813,0,0,1,.692,1.953c.03.1.057.211.087.316.167.588.309,1.2.434,1.843.036.188.068.382.1.576.047.284.095.569.134.859.037.272.072.546.1.825.068.61.116,1.237.142,1.875.038.732.04,1.48.023,2.244C125.6,94.492,124.337,98.874,122.493,101.623Z" transform="translate(-110.94 -74.024)"/><path class="t" d="M123.062,99.356a14.973,14.973,0,0,1-1.069,1.909c-2.776-1.759-4.67-6.137-4.538-11.208a17.609,17.609,0,0,1,.927-5.276c.984-2.882,2.688-5.056,4.709-5.935a3.907,3.907,0,0,1,.417-.167,18.809,18.809,0,0,1,.692,1.953c.03.1.057.211.087.316.167.588.309,1.2.434,1.843.036.188.068.382.1.576.047.284.095.569.134.859.037.272.072.546.1.825.068.61.116,1.237.142,1.875.038.732.04,1.48.023,2.244A26.2,26.2,0,0,1,123.062,99.356Z" transform="translate(-110.439 -73.666)"/></g><path class="p" d="M115.423,84.388c-1.9-1.245-4.829-1.816-7.028-3.73-1.832-1.595-4.4-7.656-7.273-4.358-2.062,2.552.1,6.363,2.418,7.58a12.384,12.384,0,0,0,8.228,2.16,7.462,7.462,0,0,0,3.655-1.652" transform="translate(-94.49 -59.58)"/><g transform="translate(10.491)"><path class="t" d="M107.862,64.048a6.4,6.4,0,0,1,1.1-.333c1.61-.611,4.366-.756,5.78.585,1.7,1.638-.561,4.84-1.961,5.744-1.474.976-6.3,2.516-7.023-.111-.53-1.9,1.687-3.577,1.809-5.458Z" transform="translate(-104.568 -60.508)"/><path class="t" d="M129.785,64.983c.024,1.885,2.149,3.679,1.522,5.545-.865,2.586-6,1.22-7.418.169-1.35-.977-3.04-4.716-1.261-6.263,1.482-1.264,4.227-.976,5.8-.283a6.392,6.392,0,0,1,1.077.391Z" transform="translate(-103.324 -60.486)"/><path class="t" d="M130.917,74.557c-1.337,3.7-6.277,7.856-12.013,7.712a13.166,13.166,0,0,1-11.531-8.108,7.977,7.977,0,0,0,1.748.746l.011,0c4.368,4.884,14.882,5.642,19.577.516A7.976,7.976,0,0,0,130.917,74.557Z" transform="translate(-104.438 -59.67)"/><path class="u" d="M111.7,67.533a2.214,2.214,0,1,1-2.155-2.271A2.214,2.214,0,0,1,111.7,67.533Z" transform="translate(-104.445 -60.355)"/><path class="u" d="M129.634,68a2.214,2.214,0,1,1-2.156-2.271A2.214,2.214,0,0,1,129.634,68Z" transform="translate(-103.067 -60.319)"/><path class="v" d="M118.724,80.252a24.235,24.235,0,0,0,4.132-.725,8.12,8.12,0,0,0,3.559-2.051,4.723,4.723,0,0,1-1.44,1.609,6.647,6.647,0,0,1-1.969.947A9.6,9.6,0,0,1,118.724,80.252Z" transform="translate(-103.565 -59.416)"/><path class="p" d="M133.9,72.9a2.346,2.346,0,0,0-.087-.786c0-.011,0-.011-.008-.023a1.8,1.8,0,0,0-.391-.745c-.882-1.064-1.8-.458-2.348.406-9.785,1.133-5.916-8.038.237-6.681.363-2.116-3.672-4.036-5.486-4.076-2.119-.067-3.519,1.414-5.794,1.357-1.966-.053-2.832-1.434-4.8-1.641-1.055-.022-3.78-.094-4.872,1.391-1.584,1.176-3.069,1.429-2.953,2.947,2.142-.857,6.855-1.942,6.606,1.99-.23,3.251-2.115,4.16-6.382,4.355-.462-1-1.435-1.9-2.47-.783a1.664,1.664,0,0,0-.489,1.225.155.155,0,0,0,0,.1,1.557,1.557,0,0,0-.011.208c-.129,4.789,6.237,11.992,14.312,12.2S133.776,77.7,133.9,72.9ZM119.114,83.3A13.166,13.166,0,0,1,107.583,75.2a7.977,7.977,0,0,0,1.748.746l.011,0c4.368,4.884,14.882,5.642,19.577.516a7.975,7.975,0,0,0,2.209-.868C129.789,79.288,124.849,83.448,119.114,83.3Z" transform="translate(-104.647 -60.705)"/><path class="t" d="M111.168,66.536a.637.637,0,1,1-.62-.654A.638.638,0,0,1,111.168,66.536Z" transform="translate(-104.244 -60.307)"/><path class="t" d="M129.48,67.343a.637.637,0,1,1-.62-.653A.637.637,0,0,1,129.48,67.343Z" transform="translate(-102.836 -60.245)"/><path class="t" d="M114.918,74.613A1.045,1.045,0,1,1,113.9,73.54,1.045,1.045,0,0,1,114.918,74.613Z" transform="translate(-104.018 -59.718)"/><path class="t" d="M123.835,74.846a1.045,1.045,0,1,1-1.018-1.073A1.045,1.045,0,0,1,123.835,74.846Z" transform="translate(-103.333 -59.7)"/></g><g transform="translate(21.41 36.938)"><path class="p" d="M124.741,97.226c.719,2.207-.54,6.069.505,8.719,6.7-.058-1.728,4.227-2.4,1.625-2.415,1.46-4.16-1.411-1.013-1.593a15.138,15.138,0,0,1-.446-5.421c.438-1.511,2.265-1.782,3.359-3.331" transform="translate(-114.375 -94.835)"/><ellipse class="p" cx="5.209" cy="2.45" rx="5.209" ry="2.45" transform="translate(0 5.058) rotate(-29.05)"/></g></g></g></g></g></svg>