<svg id="Layer_1" data-name="Layer 1" xmlns="http://www.w3.org/2000/svg" viewBox="0 0 336 189"><defs><style>.cls-1{opacity:0.75;}.cls-2{fill:#8dc647;}.cls-3{fill:#fff;}</style></defs><rect class="cls-1" width="336" height="189"/><polygon class="cls-2" points="126.76 0 0 126.76 0 81.5 81.51 0 126.76 0"/><path class="cls-3" d="M19.1,84.47l-1.21-1.2-3,3L13.3,84.59l3.41-3.41-1.3-1.31-5,5,7.06,7.07,1.56-1.56-2.92-2.92Z"/><path class="cls-3" d="M26.69,82.72,28,81.38l-5.12-5.11-1.41,1.4,2.69,2.68a2.7,2.7,0,0,1,.86,1.38,1.36,1.36,0,0,1-.49,1.18,1.05,1.05,0,0,1-1,.39,2.66,2.66,0,0,1-1.15-.75l-2.89-2.89-1.4,1.41,3.15,3.15a6,6,0,0,0,.95.78,2.29,2.29,0,0,0,.95.37,1.94,1.94,0,0,0,1-.15,3.46,3.46,0,0,0,1.08-.78,2.87,2.87,0,0,0,.67-1.07A2.22,2.22,0,0,0,26,82l0,0Z"/><path class="cls-3" d="M23.47,71.8l-1.4,1.41,7.07,7.07,1.4-1.41Z"/><path class="cls-3" d="M26,69.25l-1.41,1.4,7.07,7.07,1.41-1.4Z"/><path class="cls-3" d="M37.36,73.32l-3.61-7.89-1.46,1.45,2.39,4.62,0,0L30,69.18l-1.5,1.49,6.59,3a1.22,1.22,0,0,1,.38.26.94.94,0,0,1,.28.55.75.75,0,0,1-.19.63,3.28,3.28,0,0,1-.43.4l-.44.37,1.16,1.16.46-.4.45-.41a2.92,2.92,0,0,0,.86-1.4A2.4,2.4,0,0,0,37.36,73.32Z"/><path class="cls-3" d="M47.81,60.88a3.62,3.62,0,0,1-.53-.37c-.18-.14-.34-.28-.5-.43l-.42-.38a7.47,7.47,0,0,0-.61-.46,2.48,2.48,0,0,0-.66-.31,1.82,1.82,0,0,0-.69-.08,1.69,1.69,0,0,0-.72.23l0,0a2.3,2.3,0,0,0,.16-1.55A3,3,0,0,0,43,56.17a2.81,2.81,0,0,0-.9-.61,2.6,2.6,0,0,0-1-.21,2.91,2.91,0,0,0-1.07.24,3,3,0,0,0-1,.7L35.17,60.1l7.07,7.07,1.56-1.56L41,62.85l1.56-1.55a1.65,1.65,0,0,1,1.1-.59,2,2,0,0,1,1.15.48c.32.24.65.51,1,.8a3.64,3.64,0,0,0,1,.64l1.55-1.55A1.4,1.4,0,0,1,47.81,60.88ZM41.63,60l-1.7,1.7-2-2,1.7-1.7a1.71,1.71,0,0,1,1-.57,1.35,1.35,0,0,1,1,.48,1.41,1.41,0,0,1,.5,1A1.64,1.64,0,0,1,41.63,60Z"/><path class="cls-3" d="M52.42,53.82l-1.24,1.24a1.29,1.29,0,0,1,.08.83,1.85,1.85,0,0,1-.52.94,1.81,1.81,0,0,1-1.22.61,2,2,0,0,1-1.34-.65l3.69-3.69a5.23,5.23,0,0,0-1.23-1,4.07,4.07,0,0,0-1.42-.52,3.38,3.38,0,0,0-1.48.12,3.5,3.5,0,0,0-1.39.89,3.86,3.86,0,0,0-.86,1.27,3.57,3.57,0,0,0-.25,1.4,3.48,3.48,0,0,0,.32,1.39,4.19,4.19,0,0,0,.88,1.25,4.46,4.46,0,0,0,1.27.91,3.4,3.4,0,0,0,1.37.33,3.32,3.32,0,0,0,1.37-.27,4.14,4.14,0,0,0,1.29-.9,3.71,3.71,0,0,0,1.08-1.88A3.34,3.34,0,0,0,52.42,53.82ZM47.29,55.9a2.31,2.31,0,0,1-.27-.4,1.37,1.37,0,0,1-.17-.54,1.6,1.6,0,0,1,.07-.64,1.88,1.88,0,0,1,.45-.67,1.35,1.35,0,0,1,1-.49,2.26,2.26,0,0,1,1.17.46Z"/><path class="cls-3" d="M58.58,50.83l1.33-1.33-7.07-7.07-1.4,1.41L54,46.41l0,0a2.09,2.09,0,0,0-1.21.08,2.74,2.74,0,0,0-1.06.67,2.91,2.91,0,0,0-.89,2.51A3.8,3.8,0,0,0,51.25,51a5,5,0,0,0,.85,1.14,5.3,5.3,0,0,0,1.18.89,4,4,0,0,0,1.3.45,3,3,0,0,0,1.32-.11,3.19,3.19,0,0,0,1.23-.79,3,3,0,0,0,.72-1.09,2,2,0,0,0,0-1.25l0,0Zm-1.71-.41a1.55,1.55,0,0,1-.44.72,1.46,1.46,0,0,1-.71.42,1.77,1.77,0,0,1-.76,0,2.39,2.39,0,0,1-.75-.31,4.2,4.2,0,0,1-.66-.52,4.31,4.31,0,0,1-.55-.68,2.38,2.38,0,0,1-.31-.72,1.47,1.47,0,0,1,0-.75,1.55,1.55,0,0,1,.44-.72,1.49,1.49,0,0,1,.71-.44,1.68,1.68,0,0,1,.74,0,2.11,2.11,0,0,1,.71.31,4.35,4.35,0,0,1,.67.55,5,5,0,0,1,.56.67,2.26,2.26,0,0,1,.33.73A1.54,1.54,0,0,1,56.87,50.42Z"/><path class="cls-3" d="M64.15,42.09l-1.24,1.24a1.29,1.29,0,0,1,.08.83,1.85,1.85,0,0,1-.52.94,1.81,1.81,0,0,1-1.22.61,2,2,0,0,1-1.34-.65l3.7-3.69a5.28,5.28,0,0,0-1.24-1A4.07,4.07,0,0,0,61,39.81a3.39,3.39,0,0,0-1.48.12,3.5,3.5,0,0,0-1.39.89,3.86,3.86,0,0,0-.86,1.27A3.56,3.56,0,0,0,57,43.48a3.48,3.48,0,0,0,.32,1.4,4.19,4.19,0,0,0,.88,1.25,4.46,4.46,0,0,0,1.27.91,3.4,3.4,0,0,0,1.37.33,3.32,3.32,0,0,0,1.37-.27,4.31,4.31,0,0,0,1.29-.9,3.84,3.84,0,0,0,1.09-1.88A3.35,3.35,0,0,0,64.15,42.09ZM59,44.17a2.31,2.31,0,0,1-.27-.4,1.37,1.37,0,0,1-.17-.54,1.6,1.6,0,0,1,.07-.64,1.8,1.8,0,0,1,.45-.67,1.36,1.36,0,0,1,1-.49,2.24,2.24,0,0,1,1.16.46Z"/><path class="cls-3" d="M69.83,36.41l-1.24,1.24a1.22,1.22,0,0,1,.08.83,1.78,1.78,0,0,1-.52.94,1.73,1.73,0,0,1-1.22.6,2,2,0,0,1-1.34-.64l3.7-3.69a5.09,5.09,0,0,0-1.24-1,4.07,4.07,0,0,0-1.42-.52,3.13,3.13,0,0,0-1.48.12,3.47,3.47,0,0,0-1.39.88,3.72,3.72,0,0,0-.85,1.28,3.54,3.54,0,0,0-.26,1.39A3.61,3.61,0,0,0,63,39.19a4.29,4.29,0,0,0,.88,1.26,4.46,4.46,0,0,0,1.27.91,3.82,3.82,0,0,0,1.38.33,3.35,3.35,0,0,0,1.37-.27,4.27,4.27,0,0,0,1.28-.9,3.84,3.84,0,0,0,1.09-1.88A3.34,3.34,0,0,0,69.83,36.41ZM64.7,38.49a2.77,2.77,0,0,1-.27-.4,1.54,1.54,0,0,1-.17-.55,1.41,1.41,0,0,1,.08-.63,1.75,1.75,0,0,1,.44-.68,1.44,1.44,0,0,1,1-.49A2.33,2.33,0,0,1,67,36.2Z"/><path class="cls-3" d="M73.78,27.33a1.45,1.45,0,0,1,.57-.37.87.87,0,0,1,.53,0,1.62,1.62,0,0,1,.51.28c.16.14.33.3.5.47l2.9,2.9,1.41-1.41-3.43-3.42a3.31,3.31,0,0,0-1-.71,2,2,0,0,0-1.87.1,3.63,3.63,0,0,0-.85.65A2.33,2.33,0,0,0,72.4,27a2.92,2.92,0,0,0,0,1.21,1.83,1.83,0,0,0-1.28,0,2.92,2.92,0,0,0-1.07.7A2.56,2.56,0,0,0,69.35,30a2.9,2.9,0,0,0,0,1.28l0,0-.7-.69-1.32,1.33L72.38,37l1.4-1.41-3-3a2,2,0,0,1-.5-.72,1.42,1.42,0,0,1-.09-.62,1.23,1.23,0,0,1,.15-.48,2,2,0,0,1,.21-.31,1.42,1.42,0,0,1,.63-.4.94.94,0,0,1,.55.06,1.69,1.69,0,0,1,.49.33c.16.14.31.29.46.44l2.87,2.87L77,32.42l-2.85-2.85a5.08,5.08,0,0,1-.44-.5,1.7,1.7,0,0,1-.27-.56,1,1,0,0,1,0-.58A1.21,1.21,0,0,1,73.78,27.33Z"/><path class="cls-3" d="M84.48,21.76,83.25,23a1.26,1.26,0,0,1,.07.82,1.77,1.77,0,0,1-.52.95,1.73,1.73,0,0,1-1.22.6,2,2,0,0,1-1.33-.64L83.94,21a5.09,5.09,0,0,0-1.24-1,3.82,3.82,0,0,0-1.42-.52,3.08,3.08,0,0,0-1.47.12,3.43,3.43,0,0,0-1.4.88,3.87,3.87,0,0,0-.85,1.28,3.54,3.54,0,0,0-.26,1.39,3.61,3.61,0,0,0,.32,1.39,4.29,4.29,0,0,0,.88,1.26,4.15,4.15,0,0,0,1.28.9,3.59,3.59,0,0,0,1.37.34,3.32,3.32,0,0,0,1.37-.27,4.27,4.27,0,0,0,1.28-.9A3.84,3.84,0,0,0,84.89,24,3.34,3.34,0,0,0,84.48,21.76Zm-5.13,2.08a2.77,2.77,0,0,1-.27-.4,1.54,1.54,0,0,1-.17-.55,1.56,1.56,0,0,1,.08-.63,1.75,1.75,0,0,1,.44-.68,1.46,1.46,0,0,1,1-.49,2.33,2.33,0,0,1,1.16.46Z"/><path class="cls-3" d="M90.64,18.77,92,17.43l-7.07-7.06-1.41,1.4,2.58,2.58,0,0a2.12,2.12,0,0,0-1.22.07,2.84,2.84,0,0,0-1.06.68A3,3,0,0,0,83,16.33a3.2,3.2,0,0,0-.12,1.3,3.68,3.68,0,0,0,.43,1.27A4.64,4.64,0,0,0,84.17,20a5,5,0,0,0,1.17.88,3.67,3.67,0,0,0,1.3.45A2.83,2.83,0,0,0,88,21.26a3.07,3.07,0,0,0,1.24-.79,3.14,3.14,0,0,0,.72-1.09,2.08,2.08,0,0,0,0-1.24l0,0Zm-1.71-.41a1.55,1.55,0,0,1-.44.72,1.46,1.46,0,0,1-.7.41,1.63,1.63,0,0,1-.76,0,2.32,2.32,0,0,1-.76-.3,4.26,4.26,0,0,1-.66-.53,3.78,3.78,0,0,1-.54-.67,2.2,2.2,0,0,1-.31-.73,1.47,1.47,0,0,1,0-.75,1.58,1.58,0,0,1,.45-.72,1.49,1.49,0,0,1,1.44-.44,2,2,0,0,1,.72.31,4.25,4.25,0,0,1,.67.55,4.35,4.35,0,0,1,.55.67,2.26,2.26,0,0,1,.33.73A1.33,1.33,0,0,1,88.93,18.36Z"/></svg>